<svg width="50" height="50" viewBox="0 0 50 50" xmlns="http://www.w3.org/2000/svg">
  <!-- Transformer inspired avatar -->
  <circle cx="25" cy="25" r="24" fill="#708090" stroke="#2f4f4f" stroke-width="2"/>
  <!-- Robot head structure -->
  <rect x="15" y="12" width="20" height="18" rx="3" fill="#b0c4de"/>
  <rect x="17" y="14" width="16" height="14" rx="2" fill="#dcdcdc"/>
  <!-- Helmet crest -->
  <polygon points="25,8 20,15 30,15" fill="#ff4500"/>
  <rect x="23" y="10" width="4" height="8" fill="#ff6347"/>
  <!-- Eyes -->
  <rect x="19" y="18" width="4" height="3" rx="1" fill="#00bfff"/>
  <rect x="27" y="18" width="4" height="3" rx="1" fill="#00bfff"/>
  <!-- Mouth grille -->
  <rect x="20" y="24" width="10" height="4" rx="1" fill="#2f4f4f"/>
  <line x1="21" y1="25" x2="21" y2="27" stroke="#708090" stroke-width="1"/>
  <line x1="23" y1="25" x2="23" y2="27" stroke="#708090" stroke-width="1"/>
  <line x1="25" y1="25" x2="25" y2="27" stroke="#708090" stroke-width="1"/>
  <line x1="27" y1="25" x2="27" y2="27" stroke="#708090" stroke-width="1"/>
  <line x1="29" y1="25" x2="29" y2="27" stroke="#708090" stroke-width="1"/>
  <!-- Antenna -->
  <rect x="24" y="5" width="2" height="5" fill="#ff4500"/>
  <circle cx="25" cy="5" r="1.5" fill="#ffd700"/>
</svg>